<svg id="Capa_1" enable-background="new 0 0 512 512" height="512" viewBox="0 0 512 512" width="512" xmlns="http://www.w3.org/2000/svg"><g id="XMLID_2618_"><g id="XMLID_992_"><g id="XMLID_993_"><path id="XMLID_1000_" d="m478 378.895v-368.895c0-5.523-4.477-10-10-10h-64c-5.523 0-10 4.477-10 10v287.565c-4.305.526-8.529 1.429-12.65 2.723-6.016-12.878-13.883-24.704-23.35-35.178v-162.11c0-5.523-4.477-10-10-10h-64c-5.523 0-10 4.477-10 10v116.684c-7.226-1.116-14.575-1.685-22-1.685-4.689 0-9.361.241-14 .701v-168.7c0-5.523-4.477-10-10-10h-64c-5.523 0-10 4.477-10 10v206.975c-16.06 15.191-28.402 33.94-36 54.552v-150.527c0-5.523-4.477-10-10-10h-64c-5.523 0-10 4.477-10 10v181.084c-20.789 17.708-34 44.062-34 73.448 0 53.192 43.276 96.468 96.469 96.468h110.531c5.523 0 10-4.477 10-10s-4.477-10-10-10h-110.531c-42.165 0-76.469-34.304-76.469-76.469 0-42.166 34.304-76.469 76.469-76.469 7.755 0 15.402 1.155 22.73 3.433 2.685.835 5.596.501 8.021-.92 2.425-1.42 4.142-3.795 4.728-6.544 11.987-56.224 62.476-97.031 120.052-97.031 50.461 0 96.525 31.644 114.625 78.742 1.003 2.61 3.053 4.681 5.653 5.71 2.599 1.028 5.512.924 8.03-.293 7.062-3.41 14.653-5.139 22.562-5.139 28.653 0 51.963 23.311 51.963 51.963 0 3.808-.43 7.656-1.279 11.437-1.071 4.771 1.466 9.618 5.998 11.457 19.711 7.997 32.448 26.901 32.448 48.16 0 28.652-23.311 51.963-51.963 51.963h-143.037c-5.523 0-10 4.477-10 10s4.477 10 10 10h143.036c39.681 0 71.964-32.283 71.964-71.963 0-25.296-13.023-48.175-34-61.142zm-424-49.966v-157.929h44v148.098c-.511-.008-1.019-.036-1.531-.036-15.231 0-29.647 3.554-42.469 9.867zm164-268.929v162.127c-15.599 3.831-30.503 10.267-44 19.064v-181.191zm76 164.284v-111.284h44v133.814c-1.401-1.057-2.818-2.097-4.261-3.107-12.278-8.591-25.663-15.098-39.739-19.423zm120 73.599v-277.883h44v302.796c-10.95-13.049-26.429-22.173-44-24.913z"/><path id="XMLID_999_" d="m252 492c-2.63 0-5.21 1.07-7.07 2.93s-2.93 4.44-2.93 7.07 1.07 5.21 2.93 7.07 4.44 2.93 7.07 2.93 5.21-1.07 7.07-2.93 2.93-4.44 2.93-7.07-1.07-5.21-2.93-7.07-4.44-2.93-7.07-2.93z"/><path id="XMLID_998_" d="m259.907 374.362c5.523 0 10-4.477 10-10s-4.477-10-10-10h-33.401c-5.523 0-10 4.477-10 10v79.27c0 5.523 4.477 10 10 10h33.401c5.523 0 10-4.477 10-10s-4.477-10-10-10h-23.401v-19.635h20.938c5.523 0 10-4.477 10-10s-4.477-10-10-10h-20.938v-19.635z"/><path id="XMLID_997_" d="m162.434 433.997c-7.951 0-15.603-3.205-20.468-8.574-3.709-4.093-10.033-4.404-14.125-.695-4.093 3.708-4.404 10.033-.695 14.125 8.593 9.483 21.785 15.144 35.288 15.144 16.859 0 31.017-10.758 33.664-25.581 1.992-11.154-3.072-25.726-23.256-33.171-9.826-3.624-18.974-7.571-21.782-8.801-2.177-1.75-2.104-4.189-1.958-5.206.203-1.412 1.229-4.863 6.363-6.409 11.262-3.395 21.701 4.838 22.015 5.089 4.228 3.506 10.499 2.948 14.039-1.263 3.554-4.228 3.007-10.536-1.22-14.089-.755-.635-18.745-15.468-40.602-8.888-11.044 3.327-18.857 12.032-20.392 22.717-1.439 10.026 2.907 19.671 11.342 25.171.442.288.906.541 1.387.755.463.207 11.48 5.111 23.887 9.687 3.507 1.293 11.55 4.945 10.489 10.891-.8 4.473-6.245 9.098-13.976 9.098z"/><path id="XMLID_994_" d="m337.444 453.997c27.57 0 50-22.43 50-50s-22.43-50-50-50-50 22.43-50 50 22.43 50 50 50zm0-80c16.542 0 30 13.458 30 30s-13.458 30-30 30-30-13.458-30-30 13.458-30 30-30z"/></g></g></g></svg>